<?xml version="1.0" encoding="utf-8"?>
<!-- Generator: Adobe Illustrator 19.1.0, SVG Export Plug-In . SVG Version: 6.00 Build 0)  -->
<svg version="1.0" id="Ebene_1" xmlns="http://www.w3.org/2000/svg" xmlns:xlink="http://www.w3.org/1999/xlink" x="0px" y="0px"
	 viewBox="0 0 134 120.5" style="enable-background:new 0 0 134 120.5;" xml:space="preserve">
<style type="text/css">
	.st0{fill:url(#SVGID_1_);}
	.st1{fill:url(#SVGID_2_);}
	.st2{fill:#009640;}
	.st3{fill:#FFF59A;}
</style>
<linearGradient id="SVGID_1_" gradientUnits="userSpaceOnUse" x1="79.2309" y1="-44.3228" x2="79.2309" y2="-4.1458" gradientTransform="matrix(1 0 0 1 0 51)">
	<stop  offset="0" style="stop-color:#EBF5EC"/>
	<stop  offset="1" style="stop-color:#009640"/>
</linearGradient>
<polygon class="st0" points="51.6,45.9 64.3,7.7 106.8,7.7 94.3,45.9 "/>
<linearGradient id="SVGID_2_" gradientUnits="userSpaceOnUse" x1="14.5747" y1="234.6982" x2="14.5747" y2="165.8545" gradientTransform="matrix(1 0 0 1 46 -121)">
	<stop  offset="0" style="stop-color:#FFFEF7"/>
	<stop  offset="1" style="stop-color:#FFED00"/>
</linearGradient>
<polygon class="st1" points="51.6,45.9 26.8,112.7 69.3,112.7 94.3,45.9 "/>
<path class="st2" d="M125.8,46.8c2.2,3.2-1,8.3-4.9,7.8c-1.9-0.1-3.6-1.1-4.6-2.8c-0.9-1.4-0.8-3.6-0.1-5H125.8z"/>
<polygon class="st2" points="18.2,75.8 26.7,75.8 26.7,84.4 7.7,84.4 7.8,46.9 18.2,46.9 "/>
<path class="st2" d="M80,61.3c0.9,1.4,1.3,3,1.5,4.8v18.4h-9.8l0-17.1c0-0.7-0.5-1.1-1-1.4c-0.6-0.3-1.4-0.3-1.9,0
	c-0.6,0.3-0.9,1.1-0.9,1.8v16.7L58,84.4l0-19.1c0.2-3.4,2.5-6.3,5.5-7.5c4.7-1.8,11.3-1.7,15.1,1.8L80,61.3z"/>
<rect x="116.1" y="56.8" class="st2" width="10.2" height="27.6"/>
<path class="st2" d="M112.3,71.7c0,5.5-4,10-8.8,11.8c-4.6,2-10.7,1.2-14.4-2c-4.4-3.4-6.2-9.1-4.7-14.6c1.3-5,6-9.1,11.1-10
	c1.6-0.2,3.1-0.3,4.7,0.1l1.8,8.4V46.8l10.4,0V71.7z M96.4,67c-1.3,0.5-2,1.7-2.4,2.9c-0.2,1.3,0.2,2.5,1,3.4
	c0.9,0.9,2.3,1.4,3.5,1.2c1.4-0.1,2.4-1.1,3-2.3c0.5-1.2,0.3-2.7-0.4-3.8C100.2,66.9,98.1,66.2,96.4,67z"/>
<path class="st2" d="M53.1,64.1c1,2.2,1.6,4.5,1.7,7.1v13.3H44.7v-9l-2.3,9.3c-6,0.5-11.6-2.4-14.3-7.5c-2.1-3.9-2-9.6,0.3-13.3
	c3-5,8.8-7.8,14.8-6.7C47.2,57.9,51.2,60.2,53.1,64.1z M41.5,66.9c-1.6-0.4-3.1,0.3-4,1.5c-0.7,1-1,2.7-0.4,3.9
	c0.7,1.3,2.1,2.4,3.7,2.3c1.4,0,2.8-0.9,3.4-2.2c0.5-1.1,0.5-2.6-0.2-3.6C43.5,67.8,42.5,67.2,41.5,66.9z"/>
<g>
	<polygon class="st3" points="68.7,65.8 68.7,65.8 68.7,65.8 	"/>
	<polygon class="st3" points="44.1,68.7 44.1,68.7 44.1,68.7 	"/>
</g>
</svg>
