<?xml version="1.0" encoding="UTF-8" standalone="no"?>
<svg
   xmlns:dc="http://purl.org/dc/elements/1.1/"
   xmlns:cc="http://creativecommons.org/ns#"
   xmlns:rdf="http://www.w3.org/1999/02/22-rdf-syntax-ns#"
   xmlns:svg="http://www.w3.org/2000/svg"
   xmlns="http://www.w3.org/2000/svg"
   viewBox="0 0 1024 181"
   height="181"
   width="1024"
   id="svg815"
   version="1.1">
  <metadata
     id="metadata821">
    <rdf:RDF>
      <cc:Work
         rdf:about="">
        <dc:format>image/svg+xml</dc:format>
        <dc:type
           rdf:resource="http://purl.org/dc/dcmitype/StillImage" />
        <dc:title></dc:title>
      </cc:Work>
    </rdf:RDF>
  </metadata>
  <defs
     id="defs819" />
  <path
     id="path831"
     d=""
     style="opacity:1;fill:#ff0000;fill-opacity:1;stroke:none;stroke-width:0;stroke-miterlimit:4;stroke-dasharray:none;stroke-opacity:1" />
  <path
     id="path835"
     d=""
     style="opacity:1;fill:#ff0000;fill-opacity:1;stroke:none;stroke-width:0;stroke-miterlimit:4;stroke-dasharray:none;stroke-opacity:1" />
  <path
     id="path837"
     d=""
     style="opacity:1;fill:#ff0000;fill-opacity:1;stroke:none;stroke-width:0;stroke-miterlimit:4;stroke-dasharray:none;stroke-opacity:1" />
  <path
     id="path839"
     d=""
     style="opacity:1;fill:#ff0000;fill-opacity:1;stroke:none;stroke-width:0;stroke-miterlimit:4;stroke-dasharray:none;stroke-opacity:1" />
  <path
     id="path841"
     d=""
     style="opacity:1;fill:#ff0000;fill-opacity:1;stroke:none;stroke-width:0;stroke-miterlimit:4;stroke-dasharray:none;stroke-opacity:1" />
  <path
     id="path865"
     d=""
     style="opacity:1;fill:#000000;fill-opacity:1;fill-rule:evenodd;stroke:none;stroke-width:0;stroke-miterlimit:4;stroke-dasharray:none;stroke-opacity:1" />
  <path
     id="path911"
     d=""
     style="opacity:1;fill:#ff0000;fill-opacity:1;fill-rule:evenodd;stroke:none;stroke-width:0;stroke-miterlimit:4;stroke-dasharray:none;stroke-opacity:1" />
  <path
     id="path913"
     d="m 102.56556,45.544205 c -7.232018,-4.89493 -3.932543,-15.49666 4.84283,-15.5608 3.92172,-0.0287 8.23005,4.48169 8.23005,8.61597 0,5.79999 -8.27189,10.19435 -13.07288,6.94483 z"
     style="opacity:1;fill:#ff0000;fill-opacity:1;fill-rule:evenodd;stroke:none;stroke-width:0;stroke-miterlimit:4;stroke-dasharray:none;stroke-opacity:1" />
  <path
     id="path915"
     d="m 336.21456,130.5928 c -3.58963,-2.90518 -3.59543,-2.96645 -4.10608,-43.396275 l -0.51136,-40.487 -10.14737,-0.008 c -5.58105,-0.005 -12.71689,-0.72208 -15.85741,-1.59425 -4.87992,-1.35522 -5.71003,-2.21234 -5.71003,-5.89577 0,-7.84674 1.50105,-8.13974 41.8428,-8.16744 40.25992,-0.0276 42.4797,0.39319 41.60072,7.88696 -0.65285,5.56593 -6.17848,7.73048 -19.80079,7.75655 l -11.72976,0.0224 -0.45165,40.48755 c -0.45139,40.463935 -0.45376,40.489245 -4.04637,43.396275 -4.514,3.6526 -6.569,3.6525 -11.0827,-5.5e-4 z"
     style="opacity:1;fill:#ff0000;fill-opacity:1;fill-rule:evenodd;stroke:none;stroke-width:0;stroke-miterlimit:4;stroke-dasharray:none;stroke-opacity:1" />
  <path
     id="path917"
     d="m 403.76312,131.13173 c -3.37431,-2.36345 -3.38416,-2.50888 -3.38416,-49.943785 0,-34.97132 0.48403,-48.05746 1.82721,-49.40065 2.36028,-2.36027 10.73474,-2.36027 13.09502,0 1.34319,1.34319 1.82721,14.42933 1.82721,49.40065 0,47.434905 -0.01,47.580335 -3.38415,49.943785 -1.86129,1.3037 -4.10705,2.37036 -4.99057,2.37036 -0.88352,0 -3.12927,-1.06666 -4.99056,-2.37036 z"
     style="opacity:1;fill:#ff0000;fill-opacity:1;fill-rule:evenodd;stroke:none;stroke-width:0;stroke-miterlimit:4;stroke-dasharray:none;stroke-opacity:1" />
  <path
     id="path927"
     d="m 445.27564,130.16717 -4.23966,-3.33492 1.07609,-45.771395 c 0.59185,-25.17427 1.68859,-46.38885 2.4372,-47.14351 1.7487,-1.76282 12.99993,-3.33581 19.43099,-2.71657 3.19872,0.308 5.8199,1.76385 7.33275,4.07277 1.29498,1.97638 5.95489,17.48301 10.35536,34.45919 4.40048,16.97618 8.39949,30.21793 8.88669,29.42612 0.48721,-0.79181 4.39519,-14.39891 8.6844,-30.238 9.64363,-35.61175 9.99155,-36.37445 17.12173,-37.53343 9.77895,-1.58952 18.44207,0.37046 20.61215,4.66337 2.29903,4.54799 2.73681,79.363565 0.5203,88.918655 -2.04776,8.82766 -6.19703,10.69881 -12.46718,5.62218 -3.56877,-2.88947 -3.59861,-3.1758 -4.13508,-39.683665 -0.29721,-20.22526 -0.85156,-36.46202 -1.23189,-36.08169 -0.38033,0.38033 -4.75884,16.69627 -9.73001,36.25765 -7.62801,30.015905 -9.64699,36.100765 -12.93778,38.992145 -4.555,4.00214 -7.88293,4.3083 -12.40462,1.14119 -3.91599,-2.74287 -6.02935,-8.98183 -14.18384,-41.872785 -10.47305,-42.24281 -9.77849,-42.2766 -10.63989,0.51765 -0.75459,37.487775 -0.79322,37.849005 -4.35605,40.731595 -4.51596,3.65373 -4.96866,3.63467 -10.13166,-0.42655 z"
     style="opacity:1;fill:#ff0000;fill-opacity:1;fill-rule:evenodd;stroke:none;stroke-width:0;stroke-miterlimit:4;stroke-dasharray:none;stroke-opacity:1" />
  <path
     id="path929"
     d="m 566.35071,130.45674 c -2.91422,-2.91422 -3.04536,-5.07559 -3.04536,-50.194755 0,-45.05683 0.13072,-47.21935 2.94525,-48.72565 4.49474,-2.40551 10.00706,-1.88542 12.80686,1.20833 2.22741,2.46126 2.52001,8.10613 2.52001,48.61514 v 45.830545 l -4.01203,3.15587 c -5.0154,3.94511 -7.35706,3.96819 -11.21473,0.11052 z"
     style="opacity:1;fill:#ff0000;fill-opacity:1;fill-rule:evenodd;stroke:none;stroke-width:0;stroke-miterlimit:4;stroke-dasharray:none;stroke-opacity:1" />
  <path
     id="path933"
     d="m 610.29635,130.59173 -3.59471,-2.91036 V 82.942295 c 0,-40.59827 0.25492,-45.12825 2.75428,-48.94382 2.39165,-3.65112 3.59453,-4.14366 9.13606,-3.74089 l 6.38178,0.46384 22.84014,34.57832 c 12.56209,19.01808 23.26353,34.60648 23.78099,34.64089 0.51746,0.0344 1.25362,-14.6254 1.63591,-32.57738 0.75082,-35.25795 1.25802,-37.40317 8.84333,-37.40317 8.13002,0 8.34008,1.19837 8.78205,50.09889 0.37224,41.185175 0.17545,45.355635 -2.28401,48.402105 -1.48024,1.83354 -4.50977,3.77559 -6.73229,4.31568 -6.62965,1.61105 -14.46617,-7.24477 -35.81742,-40.476205 l -19.52603,-30.39064 -0.94298,11.0526 c -0.51865,6.07892 -1.03255,21.1205 -1.14201,33.425725 -0.1893,21.28066 -0.36427,22.48888 -3.58318,24.74349 -4.39712,3.07987 -6.17335,2.9888 -10.53191,-0.54 z"
     style="opacity:1;fill:#ff0000;fill-opacity:1;fill-rule:evenodd;stroke:none;stroke-width:0;stroke-miterlimit:4;stroke-dasharray:none;stroke-opacity:1" />
  <path
     id="path935"
     d="m 748.68502,131.94572 c -15.39877,-3.88985 -27.51422,-13.72465 -33.62721,-27.29713 -4.87895,-10.832555 -5.36009,-33.146905 -0.96629,-44.814845 4.39695,-11.6763 12.23848,-20.17746 23.5603,-25.54221 8.15392,-3.86366 10.78176,-4.32917 24.44453,-4.33025 13.4875,-0.001 16.26624,0.47608 23.36027,4.01119 12.285,6.12187 20.1176,19.03965 15.72838,25.93975 -0.62367,0.98044 -3.03816,2.26055 -5.36554,2.84469 -3.75477,0.94238 -5.13059,0.0884 -12.20964,-7.57876 -6.27684,-6.79828 -9.41706,-8.96414 -14.72646,-10.15708 -15.83002,-3.55677 -29.85894,3.22378 -35.72689,17.26776 -3.43896,8.23058 -3.13659,30.55028 0.52123,38.475705 7.42954,16.09763 23.72669,21.2526 45.05442,14.2512 l 9.92937,-3.25958 v -8.71181 -8.711795 l -11.47366,-1.03972 c -14.79665,-1.34083 -15.93452,-1.85457 -15.93452,-7.19431 0,-3.44297 0.94235,-4.80356 4.18736,-6.04584 5.94714,-2.27672 34.28407,-1.15391 37.45688,1.48418 2.05517,1.7088 2.51338,5.12264 2.51338,18.725495 0,15.85011 -0.18228,16.80463 -3.86,20.21303 -9.31064,8.62881 -38.79225,15.02544 -52.86591,11.47033 z"
     style="opacity:1;fill:#ff0000;fill-opacity:1;fill-rule:evenodd;stroke:none;stroke-width:0;stroke-miterlimit:4;stroke-dasharray:none;stroke-opacity:1" />
  <path
     id="path937"
     d="m 828.25108,130.45674 c -4.13818,-4.13818 -3.96795,-11.36252 0.3388,-14.37909 10.54383,-7.38518 20.98679,6.31537 10.87593,14.26857 -5.0154,3.94511 -7.35706,3.96819 -11.21473,0.11052 z"
     style="opacity:1;fill:#000000;fill-opacity:1;fill-rule:evenodd;stroke:none;stroke-width:0;stroke-miterlimit:4;stroke-dasharray:none;stroke-opacity:1" />
  <path
     id="path939"
     d="m 887.18976,131.04698 c -15.66251,-4.81395 -25.43793,-21.62861 -23.28246,-40.048025 2.68308,-22.92806 18.46349,-35.54303 41.48899,-33.16659 17.76507,1.83352 32.99406,17.30146 24.95201,25.34351 -1.71778,1.71779 -3.80119,3.12325 -4.6298,3.12325 -0.82861,0 -5.28969,-3.42603 -9.91352,-7.61339 -7.38004,-6.6834 -9.21689,-7.61338 -15.03754,-7.61338 -12.05351,0 -19.22487,9.21388 -19.22031,24.69459 0.005,15.370545 9.08593,25.036435 22.03139,23.449325 4.85059,-0.59468 7.45485,-2.2659 13.17454,-8.45445 7.47978,-8.09293 8.82771,-8.7004 13.61745,-6.13701 6.58171,3.52242 1.40827,16.65982 -8.78026,22.29652 -5.59567,3.09575 -19.21042,6.69186 -24.513,6.4747 -1.42436,-0.0583 -5.87373,-1.1154 -9.88749,-2.34905 z"
     style="opacity:1;fill:#000000;fill-opacity:1;fill-rule:evenodd;stroke:none;stroke-width:0;stroke-miterlimit:4;stroke-dasharray:none;stroke-opacity:1" />
  <path
     id="path941"
     d="m 950.21037,130.9961 -3.5778,-2.50599 0.75361,-46.600325 c 0.41449,-25.63018 1.27402,-47.8356 1.91007,-49.34538 0.86967,-2.06433 2.51571,-2.63072 6.63773,-2.28401 7.6651,0.64471 9.30804,4.70227 9.33554,23.05587 l 0.0224,14.98145 4.63665,-3.90148 c 9.40284,-7.91197 25.56088,-8.97683 34.11473,-2.24826 7.6125,5.98799 9.0233,10.99912 9.6929,34.42984 0.7369,25.787365 -0.097,31.536265 -5.0446,34.778055 -4.1422,2.71407 -9.13635,1.76633 -10.58505,-2.00868 -0.531,-1.38396 -1.31582,-11.46464 -1.74387,-22.40151 -0.98763,-25.234375 -1.63508,-29.277795 -5.27019,-32.912905 -4.65719,-4.65719 -13.96127,-3.97147 -20.06651,1.47894 l -4.97272,4.43936 -0.48814,23.349485 c -0.44438,21.25697 -0.7752,23.65652 -3.69144,26.77551 -3.80784,4.07258 -6.82291,4.31042 -11.66336,0.92003 z"
     style="opacity:1;fill:#000000;fill-opacity:1;fill-rule:evenodd;stroke:none;stroke-width:0;stroke-miterlimit:4;stroke-dasharray:none;stroke-opacity:1" />
  <path
     id="path943"
     d="m 159.7862,132.16808 c -10.65775,-3.48961 -18.71946,-10.21195 -23.41779,-19.52718 -3.90963,-7.75146 -3.30774,-26.753025 1.1479,-36.239175 4.27769,-9.10729 7.07382,-11.77611 16.88482,-16.11598 14.98602,-6.62903 37.60317,-0.96529 45.07425,11.28739 1.61933,2.65572 2.9468,5.68509 2.94993,6.73193 0.007,2.20239 -5.41626,7.99406 -7.48498,7.99406 -0.76998,0 -5.14858,-3.42603 -9.73022,-7.61339 -7.3974,-6.7608 -9.0933,-7.61338 -15.14413,-7.61338 -11.90434,0 -19.40598,9.12346 -19.40598,23.60149 0,7.364755 3.08127,16.389465 7.11916,20.851285 3.37154,3.72551 11.82288,5.0104 18.93673,2.87904 4.22899,-1.26703 7.13339,-3.54988 9.97014,-7.83651 9.31769,-14.079975 21.45924,-5.49027 12.65395,8.95221 -5.5443,9.0938 -28.24212,16.35193 -39.55378,12.64821 z"
     style="opacity:1;fill:#000000;fill-opacity:1;fill-rule:evenodd;stroke:none;stroke-width:0;stroke-miterlimit:4;stroke-dasharray:none;stroke-opacity:1" />
  <path
     id="path945"
     d="M 245.82729,132.15059 C 235.4375,129.45675 225.738,121.97141 221.1563,113.11137 c -1.27018,-2.45625 -2.66847,-8.42567 -3.10732,-13.265365 -2.08149,-22.95498 10.33043,-39.73512 30.98833,-41.8943 24.81639,-2.59382 42.1104,12.79663 42.11961,37.48348 0.006,16.046205 -7.84517,28.852815 -21.09191,34.404615 -6.22566,2.60921 -18.55363,3.78454 -24.23772,2.31079 z m 16.71519,-14.13672 c 5.42487,-2.47173 9.88391,-10.30543 10.93956,-19.218735 1.04539,-8.82664 -1.22524,-16.80174 -6.60349,-23.19343 -3.32569,-3.95236 -4.81763,-4.52935 -11.71175,-4.52935 -13.95661,0 -19.24302,6.78241 -19.22688,24.66788 0.0108,12.049445 2.6658,18.252575 9.41497,21.997795 4.44355,2.46579 12.11109,2.58885 17.18759,0.27584 z"
     style="opacity:1;fill:#000000;fill-opacity:1;fill-rule:evenodd;stroke:none;stroke-width:0;stroke-miterlimit:4;stroke-dasharray:none;stroke-opacity:1" />
  <path
     id="path947"
     d="m 10.627327,157.96502 c -0.9874292,-1.84503 -1.5762502,-20.24316 -1.5762502,-49.25099 0,-42.926465 0.203212,-46.489645 2.7845802,-48.825755 1.53152,-1.386 3.823537,-2.52001 5.093372,-2.52001 3.251132,0 7.348813,4.94884 7.348813,8.87529 0,4.18456 1.778628,4.19942 5.474041,0.0457 3.600669,-4.0472 13.808875,-8.84578 18.888785,-8.87908 18.444221,-0.12088 32.631566,16.13975 32.512411,37.26365 -0.09393,16.652005 -6.215878,28.135015 -18.539262,34.774315 -10.71499,5.77276 -20.131642,4.77821 -29.591593,-3.12535 l -6.41785,-5.36196 -1.011486,3.60593 c -0.556316,1.98327 -1.079786,9.89514 -1.163265,17.58194 -0.114277,10.52272 -0.743002,14.56721 -2.544559,16.36877 -3.307755,3.30776 -9.350513,3.01121 -11.257737,-0.55247 z m 39.760137,-39.72653 c 6.290218,-1.74717 9.39944,-5.69079 11.947586,-15.15388 2.616895,-9.718405 0.653246,-20.514605 -4.876844,-26.813025 -4.024323,-4.58345 -5.445157,-5.19923 -11.996607,-5.19923 -10.481312,0 -16.489127,5.4581 -18.246826,16.57723 -1.933372,12.23045 0.318624,21.218605 6.805922,27.163765 5.868825,5.37838 7.845396,5.79202 16.366769,3.42514 z"
     style="opacity:1;fill:#000000;fill-opacity:1;fill-rule:evenodd;stroke:none;stroke-width:0;stroke-miterlimit:4;stroke-dasharray:none;stroke-opacity:1" />
  <path
     id="path949"
     d="m 101.93435,130.45674 c -2.855123,-2.85513 -3.045353,-5.07559 -3.045353,-35.546905 0,-29.55318 0.2526,-32.73015 2.784583,-35.02156 3.47541,-3.1452 6.24796,-3.18442 10.5807,-0.14965 3.31672,2.32312 3.38416,3.01572 3.38416,34.75614 0,31.883685 -0.0546,32.437095 -3.52416,35.696545 -4.36278,4.09862 -6.29632,4.14904 -10.17993,0.26543 z"
     style="opacity:1;fill:#000000;fill-opacity:1;fill-rule:evenodd;stroke:none;stroke-width:0;stroke-miterlimit:4;stroke-dasharray:none;stroke-opacity:1" />
</svg>
